<svg width="500" height="500" viewBox="0 0 500 500" fill="none" xmlns="http://www.w3.org/2000/svg">
<path d="M412.221 343.486C343.801 401.499 196.415 454.867 147.628 329.853C102.089 213.166 184.738 86.8409 314.879 41.6236C245.18 183.479 275.717 346.926 412.221 343.486Z" fill="url(#paint0_radial_1_2)"/>
<path d="M196.699 255.319C195.611 354.372 322.416 428.909 392.632 388.155C448.142 321.356 437.256 241.17 471 195.453C453.946 192.188 432.541 199.808 423.107 210.692C367.594 207.427 365.416 250.966 329.497 282.533C284.34 322.213 227.687 303.853 196.699 255.319Z" fill="url(#paint1_radial_1_2)"/>
<path d="M392.633 388.154C310.479 486.036 139.049 487.668 61.8996 371.217C-16.1101 253.465 52.713 104.535 183.219 28.3414C145.254 230.802 244.913 420.198 392.633 388.154Z" fill="black"/>
<path d="M392.633 388.154C310.479 486.036 139.049 487.668 61.8996 371.217C-16.1101 253.465 52.713 104.535 183.219 28.3414C145.254 230.802 244.913 420.198 392.633 388.154Z" fill="url(#paint2_radial_1_2)"/>
<defs>
<radialGradient id="paint0_radial_1_2" cx="0" cy="0" r="1" gradientTransform="matrix(86.7523 382.461 -207.667 267.496 270.673 32.6179)" gradientUnits="userSpaceOnUse">
<stop stop-color="#57CFFF"/>
<stop offset="0.38" stop-color="#C7F387"/>
<stop offset="0.705" stop-color="#F69274"/>
<stop offset="1" stop-color="white"/>
</radialGradient>
<radialGradient id="paint1_radial_1_2" cx="0" cy="0" r="1" gradientTransform="matrix(85.8406 214.946 -205.485 150.335 330.94 189.629)" gradientUnits="userSpaceOnUse">
<stop stop-color="#89DDFF"/>
<stop offset="0.38" stop-color="#DCF7B5"/>
<stop offset="0.705" stop-color="#F9B7A4"/>
<stop offset="1" stop-color="white"/>
</radialGradient>
<radialGradient id="paint2_radial_1_2" cx="0" cy="0" r="1" gradientTransform="matrix(113.793 453.145 -272.398 316.933 206.964 17.6714)" gradientUnits="userSpaceOnUse">
<stop stop-color="#89DDFF"/>
<stop offset="0.38" stop-color="#DCF7B5"/>
<stop offset="0.705" stop-color="#F9B7A4"/>
<stop offset="1" stop-color="white" stop-opacity="0.9"/>
</radialGradient>
</defs>
</svg>
